<?xml version="1.0" encoding="utf-8"?>
<svg version="1.1" id="Ebene_1" xmlns="http://www.w3.org/2000/svg" xmlns:xlink="http://www.w3.org/1999/xlink" viewBox="0 0 100 27.5" xml:space="preserve">
<style type="text/css">.st0{fill:#D9052F;}</style>
<g>
	<g>
		<polygon class="st0" points="17,22.5 11.4,22.5 8.5,27.2 14.2,27.2"/>
		<polygon class="st0" points="25.7,22.5 20.1,22.5 17.2,27.2 22.9,27.2"/>
		<path class="st0" d="M91.4,0.4c0-0.3,0.3-0.4,0.4-0.4h3.9c0.1,0,0.4,0.2,0.4,0.4c0,0.1,0,21.5,0,21.5s0,0.4,0.4,0.8
			s0.8,0.4,0.8,0.4h1.8c0,0,0.4,0,0.5,0.3s0.2,0.5-0.4,1.4L98,26.5c0,0-0.7,0.9-1.8,0.9c-1.1,0-2.6-0.4-3.5-1.4s-1.3-2.6-1.3-3.3 L91.4,0.4L91.4,0.4z"/>
		<path class="st0" d="M68.9,23.3c-0.1-0.4-0.5-0.4-0.9-0.4c-0.5,0-1.3,0.2-1.9-0.4s-0.4-0.9-0.4-1.4V15c0,0,0-3.8-2.2-5.8
			s-4.4-2.4-5.9-2.4c-0.9,0-4.2,0-6.9,0c-0.4,0-0.7,0.2-0.8,0.5c-0.6,1-1.8,3-1.9,3.2c-0.3,0.5,0,1,0.5,1c0.4,0,9.4,0,9.4,0
			s1.7,0.1,2.2,1c0.6,0.9,0.6,1.2,0.6,2.2v5.2c0,0,0.4,3.3-4,3.2c-3.2,0-4.3-1-4.3-2.2c0,0-0.2-1.8,1.6-2.3s2.7-0.4,4.8,0
			c0.4,0.1,0.4-0.2,0.4-0.5V15c0,0,0.1-0.5-0.4-0.6s-1.6-0.5-3.9-0.6c-4.2-0.3-7.6,2.8-7.6,6.8c0,0-0.3,6,7,6.7
			c1.4,0.1,4.8,0,6.4-1.3c0.9-0.8,1-0.6,1.3-0.3c0,0,1.7,1.8,3.7,1.7c1.6,0,2.2-1.6,3.3-3.5C68.9,23.9,69.1,23.6,68.9,23.3"/>
		<path class="st0" d="M90.7,23.3c-0.1-0.4-0.5-0.4-0.9-0.4c-0.5,0-1.3,0.2-1.9-0.4s-0.4-0.9-0.4-1.4V15c0,0,0-3.8-2.2-5.8
			s-4.4-2.4-5.9-2.4c-0.9,0-4.2,0-6.9,0c-0.4,0-0.7,0.2-0.8,0.5c-0.6,1-1.8,3-1.9,3.2c-0.3,0.5,0,1,0.5,1c0.4,0,9.4,0,9.4,0
			s1.7,0.1,2.2,1c0.6,0.9,0.6,1.2,0.6,2.2v5.2c0,0,0.4,3.3-4,3.2c-3.1,0-4.3-1-4.3-2.2c0,0-0.2-1.8,1.6-2.3c1.7-0.5,2.7-0.4,4.8,0
			c0.4,0.1,0.4-0.2,0.4-0.5V15c0,0,0.1-0.5-0.4-0.6s-1.6-0.5-3.9-0.6c-4.2-0.3-7.6,2.8-7.6,6.8c0,0-0.3,6,7.1,6.7
			c1.4,0.1,4.8,0,6.4-1.3c0.9-0.8,1-0.6,1.3-0.3c0,0,1.7,1.8,3.7,1.7c1.6,0,2.2-1.6,3.3-3.5C90.7,23.9,90.9,23.6,90.7,23.3"/>
		<path class="st0" d="M0.9,27.2c-0.7,0-0.6-0.6-0.4-1c0.2-0.3,1.8-3.1,1.9-3.1c0.2-0.3,0.6-0.6,1-0.6h5.1l-2.8,4.7H0.9L0.9,27.2z"/>
		<path class="st0" d="M39.2,27.2c0.4,0,6.3-0.4,6.3-6.1s-5-6.9-7.3-6.9c-4.5-0.1-4.4-1.1-4.4-1.6s0.4-1.1,1.7-1.1h7.8
			c0.7,0,1-0.2,1.4-0.7c0.1-0.2,1.8-2.9,1.9-3.1c0.3-0.5,0-0.9-0.5-0.9c-0.2,0-11,0-11,0s-6.3,0-6.2,5.9c0.1,3.4,3.1,5.2,5.4,5.4
			c1.9,0.2,4.3,0.3,5.3,1c1,0.8,1,2,0.7,2.5s-0.6,0.9-2.5,0.9h-9L26,27.2H39.2L39.2,27.2z"/>
	</g>
</g>
</svg>